HIERARCHY
ROOT Hips
{
  OFFSET 0 0 0
  CHANNELS 6 Xposition Yposition Zposition Zrotation Yrotation Xrotation
  JOINT LeftThigh
  {
    OFFSET 8.409438 0 -5.917753
    CHANNELS 3 Zrotation Yrotation Xrotation
    JOINT LeftLeg
    {
      OFFSET 0 0 -42.358652
      CHANNELS 3 Zrotation Yrotation Xrotation
      JOINT LeftFoot
      {
        OFFSET 0 0 -39.357303
        CHANNELS 3 Zrotation Yrotation Xrotation
      }
    }
  }
  JOINT RightThigh
  {
    OFFSET -8.409438 0 -5.917753
    CHANNELS 3 Zrotation Yrotation Xrotation
    JOINT RightLeg
    {
      OFFSET 0 0 -42.358652
      CHANNELS 3 Zrotation Yrotation Xrotation
      JOINT RightFoot
      {
        OFFSET 0 0 -39.357303
        CHANNELS 3 Zrotation Yrotation Xrotation
      }
    }
  }
  JOINT SpineLow
  {
    OFFSET 0 0 4.719101
    CHANNELS 3 Zrotation Yrotation Xrotation
    JOINT SpineMid
    {
      OFFSET 0 0 12.899191
      CHANNELS 3 Zrotation Yrotation Xrotation
      JOINT Chest
      {
        OFFSET 0 0 12.899191
        CHANNELS 3 Zrotation Yrotation Xrotation
        JOINT LeftShoulder
        {
          OFFSET 7.550562 1.41573 9.438202
          CHANNELS 3 Zrotation Yrotation Xrotation
          JOINT LeftArm
          {
            OFFSET 9.155056 0 4.247191
            CHANNELS 3 Zrotation Yrotation Xrotation
            JOINT LeftForearm
            {
              OFFSET 0 0 25.771955
              CHANNELS 3 Zrotation Yrotation Xrotation
              JOINT LeftHand
              {
                OFFSET 0 0 25.197169
                CHANNELS 3 Zrotation Yrotation Xrotation
              }
            }
          }
        }
        JOINT RightShoulder
        {
          OFFSET -7.550562 1.41573 9.438202
          CHANNELS 3 Zrotation Yrotation Xrotation
          JOINT RightArm
          {
            OFFSET -9.155056 0 4.247191
            CHANNELS 3 Zrotation Yrotation Xrotation
            JOINT RightForearm
            {
              OFFSET 0 0 -25.771955
              CHANNELS 3 Zrotation Yrotation Xrotation
              JOINT RightHand
              {
                OFFSET 0 0 -25.197169
                CHANNELS 3 Zrotation Yrotation Xrotation
              }
            }
          }
        }
        JOINT Neck
        {
          OFFSET 0 0 15.101124
          CHANNELS 3 Zrotation Yrotation Xrotation
          JOINT Head
          {
            OFFSET 0 0 11.325843
            CHANNELS 3 Zrotation Yrotation Xrotation
            End Site
            {
              OFFSET 0 0 14.157303
            }
          }
        }
      }
    }
  }
}
MOTION
Frames: 17
Frame Time: 0.0
0.0  89.887642  0.0  0.161354  -14.541609  -93.105196  17.998739  -16.766144  -7.371875  0.885169  6.822111  34.464634  0.845698  0.193592  -0.105252  -2.351411  10.738022  -18.984446  0.574735  3.146743  33.166908  12.178743  2.993014  2.591944  0.903627  -1.758407  0.235794  2.456783  -4.814431  0.579567  2.456782  -4.814431  0.579567  0.535299  30.939286  14.652961  115.466148  38.525679  174.938035  -4.669237  -19.789973  42.746368  79.261363  -9.747006  16.246236  -4.950854  11.957047  15.35102  64.965512  21.384378  23.343079  0.145233  13.178825  -37.809884  82.088705  10.167305  -5.037557  5.863002  7.678925  6.892979  4.304225  5.826689  5.088469  
0.0  89.887642  0.0  0.894923  -14.26313  -92.788645  16.996316  -15.518101  -8.161595  0.647006  6.973586  35.488962  1.281226  0.334607  0.199876  -3.79406  11.656781  -20.682129  1.074971  2.702758  34.758531  12.224956  3.153683  2.562927  0.831476  -1.608965  0.225592  2.260791  -4.405072  0.561935  2.260791  -4.405072  0.561935  0.453785  30.639601  14.38407  115.36902  38.625621  175.002735  -4.334742  -19.884728  42.647243  79.236036  -9.626878  16.544205  -5.020277  12.013142  15.245564  64.077257  20.822204  23.029208  -0.523557  12.500979  -38.681926  81.611789  9.998694  -4.74448  5.995978  7.661469  6.642829  4.40716  5.812608  4.899669  
0.0  89.887642  0.0  1.536635  -13.069351  -92.582723  15.019764  -14.271765  -8.884814  0.478113  7.010856  36.511349  1.662164  0.458025  0.497705  -5.961818  12.503533  -22.230824  1.11529  2.530703  36.393224  13.682869  3.821589  2.820996  0.637537  -1.467996  0.241776  1.729898  -4.018634  0.62279  1.729898  -4.018634  0.62279  -0.205636  30.383412  13.728162  115.345079  38.791234  174.919962  -3.979868  -19.919979  42.556457  79.160399  -9.42954  16.758876  -5.488411  12.088821  14.988062  63.827661  20.119424  22.937593  -1.724646  11.465061  -39.753589  81.334019  9.780169  -4.239458  6.069138  7.658557  6.300136  4.466249  5.807755  4.64213  
0.0  89.887642  0.0  2.542344  -11.329331  -92.574518  12.57505  -12.783004  -9.706902  0.378884  7.067698  37.544072  2.037905  0.617956  0.837844  -8.522426  13.375775  -23.205016  0.854325  3.063783  37.486145  13.929749  4.199618  2.656152  0.346949  -1.280985  0.264766  0.935112  -3.505115  0.705913  0.935112  -3.505115  0.705913  -0.698224  30.357108  13.040235  115.459572  38.93464  174.641178  -3.470753  -19.946205  42.475898  79.196215  -9.273239  16.923447  -5.608926  12.360546  15.210468  62.913435  19.648115  22.443181  -2.745148  10.317906  -41.098765  80.834845  9.421701  -3.891486  6.189378  7.697654  5.986657  4.559739  5.835108  4.405377  
0.0  89.887642  0.0  3.623616  -8.897791  -92.35224  9.874963  -11.525032  -10.801126  0.37443  7.440189  38.421104  2.352844  0.740927  1.08334  -11.841819  14.247485  -23.97938  0.870173  3.620832  37.949626  14.632759  4.488055  2.445755  -0.024635  -1.086464  0.226796  -0.077579  -2.96948  0.621416  -0.077579  -2.96948  0.621416  -1.46876  30.526264  12.189525  115.612814  39.024304  174.1342  -2.848059  -19.917379  42.251359  79.30101  -9.06913  16.980339  -5.851981  12.663139  15.687456  62.164927  19.199593  22.130026  -4.107923  8.810979  -43.058787  80.399178  8.97215  -3.461434  6.200431  7.717225  5.762104  4.5706  5.847576  4.236822  
0.0  89.887642  0.0  4.535618  -5.649153  -92.011313  7.304044  -10.26893  -11.525384  -0.090976  7.531827  38.455182  2.514779  0.775907  1.359676  -15.469634  15.209309  -24.139847  1.04855  3.795343  37.668924  15.422739  4.670151  2.223095  -0.482569  -0.943095  0.124445  -1.324521  -2.575246  0.359134  -1.324521  -2.575246  0.359134  -2.582531  31.064774  11.355709  115.821511  39.142915  173.463341  -1.977675  -19.834247  41.724297  79.487306  -8.77603  16.942831  -6.152164  13.077894  16.620387  61.355289  18.806095  21.996839  -6.327597  7.036908  -45.7823  80.304784  8.452961  -3.475609  6.023566  7.776894  5.770284  4.437355  5.890714  4.244464  
0.0  89.887642  0.0  5.104025  -1.554954  -91.789519  4.55032  -9.144707  -12.322239  -0.765186  7.259948  38.331315  2.562925  0.800714  1.707423  -18.597358  16.274674  -23.087214  0.910136  3.663557  36.585184  15.673724  4.757825  2.040679  -1.040522  -0.898436  -0.064498  -2.842971  -2.458035  -0.137657  -2.842971  -2.458036  -0.137657  -3.513594  32.001317  11.213806  116.024025  39.408389  172.897193  -0.647505  -19.740816  40.844913  79.690917  -8.33121  16.96865  -6.221  13.669888  18.27828  60.266573  18.447267  22.139512  -9.000438  4.271617  -49.652395  82.108355  7.543604  -3.018141  5.752419  7.947195  6.274529  4.22584  6.020699  4.623581  
0.0  89.887642  0.0  5.207166  3.057313  -91.844721  2.734723  -8.56763  -12.909522  -2.242233  7.049545  37.847143  2.458758  0.780337  2.026764  -20.952725  17.059365  -20.868273  0.627229  3.549329  34.940022  15.487513  4.72038  1.871107  -1.659837  -0.930626  -0.280293  -4.528226  -2.561596  -0.702186  -4.528225  -2.561596  -0.702186  -3.893052  32.775287  12.184167  116.319187  40.144378  173.083378  1.396258  -19.820059  39.601593  79.849865  -7.762288  17.379538  -6.215852  14.428404  20.254095  59.004827  18.278972  22.325589  -10.308407  2.840865  -53.672612  82.240174  7.421696  -1.9165  5.467622  8.197343  7.18521  3.997384  6.213732  5.306402  
0.0  89.887642  0.0  5.048117  7.863529  -91.87518  2.201944  -8.190375  -12.949632  -4.380062  6.738639  36.529141  2.079926  0.649681  2.154097  -22.316818  17.35322  -18.213159  -0.046408  3.884154  33.145892  15.16379  4.640525  1.706722  -2.272313  -1.028554  -0.569766  -6.19006  -2.861953  -1.460028  -6.19006  -2.861953  -1.460028  -4.042015  33.531487  13.856644  117.061555  40.762865  174.036441  4.57751  -20.65489  37.951653  80.053547  -7.0959  18.340545  -5.743112  14.956535  22.366804  57.051954  18.351957  22.774235  -11.229796  2.589308  -57.618585  80.730286  7.201059  -1.791258  5.171665  8.700959  8.507918  3.750154  6.599583  6.295027  
0.0  89.887642  0.0  4.657539  12.981574  -91.92292  2.436212  -8.178796  -12.647309  -7.093152  6.540213  34.520469  1.488329  0.475486  2.180643  -23.162088  17.237111  -14.920545  -0.99544  4.493151  30.862666  14.589736  4.513932  1.552311  -2.884268  -1.172315  -0.966311  -7.841575  -3.313802  -2.49915  -7.841576  -3.313802  -2.49915  -3.656819  34.328147  15.858746  117.632539  40.410478  175.091549  8.827716  -22.560579  35.759696  80.403774  -6.543727  20.028895  -4.601334  16.262663  25.358477  54.608072  17.957062  22.402344  -11.822904  1.797081  -61.695924  79.446696  6.876954  -0.963484  4.888598  9.404534  10.306592  3.499455  7.138509  7.637254  
0.0  89.887642  0.0  4.350004  18.727179  -91.62099  2.588698  -8.340189  -12.626043  -10.198456  6.585001  32.11859  0.959231  0.371187  2.164643  -23.79605  16.883879  -11.32044  -2.544646  5.292649  28.014702  13.590494  4.450508  1.37194  -3.517855  -1.309958  -1.508362  -9.539228  -3.789618  -3.926431  -9.539228  -3.789618  -3.926431  -2.90462  35.11143  17.863864  117.64958  39.132296  176.139664  13.564885  -25.013171  33.021256  81.278374  -6.115257  22.061771  -3.689623  18.270815  28.617134  52.641949  16.990691  22.009319  -12.503631  0.198548  -66.519369  78.868201  6.766734  -0.985984  4.485016  10.157553  12.436741  3.147749  7.713342  9.228329  
0.0  89.887642  0.0  3.87531  24.79466  -91.001834  2.343277  -8.858853  -13.00683  -12.800144  6.622462  29.647988  0.427422  0.352753  2.046446  -23.816008  15.834231  -7.46058  -4.633807  6.427834  24.637571  12.187041  4.330756  1.164213  -3.979776  -1.487957  -1.982063  -10.762268  -4.377306  -5.163113  -10.762268  -4.377306  -5.163113  -3.447217  35.694565  18.587104  117.102133  37.372384  177.351549  17.184029  -27.433451  30.341425  83.252497  -5.742212  24.217222  -3.934643  20.423121  31.253615  50.553771  16.228548  21.254547  -12.513397  -0.911365  -71.821761  79.287848  7.381582  -1.155957  3.136177  10.843598  14.05428  2.094254  8.209869  10.453093  
0.0  89.887642  0.0  3.704657  31.152568  -90.297932  1.693085  -9.303197  -13.569699  -14.762181  6.764298  27.484483  0.160459  0.405313  1.721428  -23.082782  14.356055  -3.30285  -7.657472  7.838362  20.816887  11.11984  4.330417  0.949318  -4.252084  -1.577023  -2.022894  -11.498598  -4.647219  -5.24057  -11.498599  -4.64722  -5.24057  -6.195676  34.830074  15.817104  116.082805  35.00621  178.754433  18.027801  -29.841563  29.202628  85.892437  -5.061306  26.01479  -5.736538  21.583248  30.99602  48.038431  15.514868  20.368821  -11.714903  -0.46599  -77.28739  79.91579  8.316288  -1.220975  0.543405  11.040779  13.949345  0.15149  8.298009  10.419422  
0.0  89.887642  0.0  3.737802  37.129497  -89.566771  0.964754  -9.561743  -13.970904  -15.625046  6.525333  25.553879  -0.58602  0.435597  1.299056  -20.463683  12.795035  0.753797  -11.931635  8.55227  17.150847  10.096521  4.236007  0.839037  -4.403021  -1.667077  -1.693853  -11.931118  -4.84503  -4.316155  -11.931119  -4.84503  -4.316155  -9.345318  32.712954  11.079821  114.926732  32.906914  -179.719307  15.739233  -32.179699  30.901779  87.799445  -3.492738  26.406597  -8.041271  22.507622  28.331418  45.773547  14.562591  18.985835  -11.271212  1.965762  -83.155986  79.626343  8.581579  -2.114722  -2.57161  10.822314  12.332625  -2.144724  8.06907  9.267912  
0.0  89.887642  0.0  4.129453  43.042018  -89.113325  -0.661983  -9.396919  -13.62851  -15.760884  5.957807  23.655146  -1.518144  0.169589  1.312639  -16.538295  10.866124  5.154269  -17.698386  8.902621  13.471398  8.621897  4.146881  0.79669  -4.172488  -1.860327  -1.084978  -11.340818  -5.253641  -2.639778  -11.340818  -5.253641  -2.639778  -13.876383  30.803535  5.313386  112.848937  31.574086  -178.917572  10.026392  -33.907911  36.108429  88.877355  -1.495978  24.885876  -12.084792  23.917647  23.93122  43.508412  13.692019  17.122197  -10.371097  3.827933  -89.057641  80.147656  9.060513  -2.465627  -7.131103  10.633682  9.567843  -5.502621  7.867566  7.2816  
0.0  89.887642  0.0  4.440161  48.473505  -88.844016  -2.775373  -9.220058  -13.152358  -15.582252  5.387333  22.241433  -2.551834  -0.270598  1.261523  -13.336822  8.310694  8.738473  -23.898683  9.263088  10.183445  6.828964  4.038302  0.78523  -4.193163  -1.909142  -0.808904  -11.419041  -5.340012  -1.876249  -11.419041  -5.340012  -1.876249  -13.217941  29.159872  3.75295  110.9661  31.100968  -178.460365  1.509295  -34.028864  44.918346  89.383228  0.225461  22.456178  -12.266102  25.185873  21.99995  42.026518  13.256861  15.420673  -8.97733  4.638648  -95.22945  81.051717  9.583281  -2.344846  -10.132476  10.242662  8.291069  -7.720876  7.549079  6.375101  
0.0  89.887642  0.0  5.744487  54.894585  -87.252684  -6.961448  -8.540267  -13.275515  -15.579568  4.930535  21.209415  -2.513592  -0.484221  1.091417  -15.671465  6.949677  10.20936  -27.925456  9.622099  7.60174  5.920947  3.816628  0.782466  -4.316341  -1.830444  -0.769003  -11.760306  -5.121659  -1.771043  -11.760306  -5.121659  -1.771043  -11.33757  28.09559  3.688034  111.266727  31.053567  -177.822542  -7.054479  -31.002871  56.182148  89.360646  0.914353  19.229142  -12.235094  25.846742  19.672447  42.138946  14.02912  14.195182  -8.064261  4.716967  -101.242047  82.202992  9.957373  -2.132019  -13.046917  9.780767  7.518494  -9.88431  7.180676  5.838853  
